<svg xmlns="http://www.w3.org/2000/svg" viewBox="0 0 842 596"><g fill="#d30110"><path d="M469.7 49.4c.2.1.4.3.7.4 2.7 1.1 3.9 2.9 3.9 5.9v47.9c0 2.2 0 2.2 2.3 2.2h16.2c13.2.2 24.4 10.6 25.6 23.8.1 1.3.2 2.5.2 3.8V284c0 1.7-.5 2.6-2 3.5-21.3 12.3-42.6 24.6-63.9 37-.5.3-1 .6-1.9 1v-2.3-100.9c0-6.2-2.3-11.1-7.8-14.1-2.1-1.1-4.7-1.7-7.1-1.8-8.9-.2-17.9-.2-26.8 0-8.5.2-14.4 6.6-14.5 15.1v104.9c-2.9-1.7-5.6-3.2-8.2-4.8-20.2-11.7-40.5-23.5-60.7-35.2-1.3-.7-1.7-1.6-1.7-3V132.8c0-13.4 8.5-24.1 21.4-26.7 2-.4 4.2-.5 6.3-.5 6.4-.1 12.8 0 19.5 0v-2.2c0-15.4.1-30.8-.1-46.2 0-3.8 1-6.5 4.6-8 31.4.2 62.7.2 94 .2zM137.3 457.4c.8-2.6 2.8-4 5.1-5.3 13.3-7.6 26.5-15.4 39.8-23.1.5-.3.9-.6 1.5-.9-.3-.6-.6-1.1-.9-1.6-3.4-5.9-7-11.8-10.1-17.9-6.2-12-2.3-26.8 9.1-34 8.6-5.5 17.6-10.4 26.4-15.5 33.9-19.7 67.9-39.4 101.8-59.1 1.3-.7 2.2-.7 3.4 0 22.4 13 44.8 26 67.3 39.1.4.2.8.5 1.5.9-.7.4-1.2.7-1.7 1.1L296.2 390c-5.8 3.3-9 8.1-8.4 14.9.2 2.2 1 4.4 2.1 6.4 4.1 7.4 8.4 14.8 12.7 22.1 4.7 8.1 13.3 10.4 21.4 5.7 28.9-16.7 57.7-33.5 86.6-50.2.6-.3 1.1-.6 2-1.1 0 .8.1 1.3.1 1.9v74.7c0 1.3-.4 2-1.5 2.6-43.4 25.1-86.8 50.3-130.1 75.5-3.3 1.9-6.8 3.2-10.5 3.7-.3 0-.6.2-.9.3h-4.3c-.3-.1-.5-.3-.8-.3-9.3-1-16.1-5.8-20.7-13.9l-6.9-12c-.5-.8-1-1.7-1.6-2.6-.7.4-1.3.7-1.8 1-13.6 7.9-27.2 15.8-40.8 23.6-1.2.7-2.8 1.1-4.2 1.1-2.5 0-3.9-1.7-5.1-3.7-7.3-12.8-14.7-25.5-22-38.3-8-14.1-16-28.1-24.1-42.2-.1-.5-.1-1.2-.1-1.8zM573.4 546.5c-5.5-.8-10.4-3-15-6-1.9-1.2-3.9-2.3-5.9-3.4-40.1-23.3-80.3-46.6-120.4-69.8-1.4-.8-1.8-1.7-1.8-3.2.1-24.7 0-49.4 0-74.1v-2.2c.9.5 1.5.8 2.2 1.2 28.7 16.7 57.5 33.3 86.2 50 4.7 2.7 9.3 3.4 14.4 1.2 3.3-1.4 5.5-3.8 7.2-6.8 4.2-7.3 8.4-14.6 12.6-22 4.5-8 2.2-16.6-5.7-21.2-11.9-6.9-23.9-13.9-35.8-20.8-16.2-9.4-32.4-18.8-48.5-28.2-.5-.3-.9-.6-1.6-1 2.5-1.5 4.9-2.9 7.3-4.3l61.5-35.7c1.3-.7 2.2-.7 3.4 0 41.7 24.3 83.5 48.5 125.2 72.7 9.8 5.7 14.6 14.3 14.1 25.6-.2 4.3-1.7 8.2-3.8 11.9l-9 15.6c-.3.5-.6 1.1-.9 1.7.6.3 1 .7 1.5 1 13.3 7.7 26.6 15.5 40 23.1 2 1.2 3.8 2.4 4.7 4.6v3.3c-.4.7-.9 1.5-1.3 2.2-14.8 25.8-29.6 51.6-44.4 77.3-2.5 4.3-5.4 5.1-9.8 2.6-13.5-7.8-26.9-15.6-40.4-23.4-.6-.4-1.2-.7-1.9-1.1-.5.9-.9 1.6-1.3 2.3-2.5 4.3-4.9 8.5-7.4 12.8-3.6 6.2-8.7 10.5-15.6 12.5-1.9.6-3.8.8-5.8 1.2-1.4.4-2.7.4-4 .4z"/></g></svg>